<?xml version="1.0" encoding="utf-8"?>
<!-- Generator: Adobe Illustrator 16.0.0, SVG Export Plug-In . SVG Version: 6.00 Build 0)  -->
<!DOCTYPE svg PUBLIC "-//W3C//DTD SVG 1.1//EN" "http://www.w3.org/Graphics/SVG/1.1/DTD/svg11.dtd">
<svg version="1.1" id="Layer_1" xmlns="http://www.w3.org/2000/svg" xmlns:xlink="http://www.w3.org/1999/xlink" x="0px" y="0px"
	 width="26px" height="24px" viewBox="0 0 26 24" enable-background="new 0 0 26 24" xml:space="preserve">
<path fill="#F2613C" d="M13.002,0.417c3.341,0,6.137,1.124,8.386,3.371c2.19,2.146,3.324,4.768,3.403,7.866
	c0.004,0.191-0.152,0.348-0.344,0.348h-4.917c-0.179,0-0.335-0.146-0.343-0.324c-0.067-1.649-0.654-3.057-1.762-4.225
	c-1.179-1.265-2.653-1.898-4.422-1.898c-1.77,0-3.243,0.633-4.422,1.898c-1.18,1.243-1.769,2.76-1.769,4.549
	c0,1.789,0.589,3.317,1.769,4.582c1.106,1.167,2.473,1.786,4.099,1.858c0.178,0.008,0.323,0.164,0.323,0.342v4.455
	c0,0.191-0.158,0.348-0.349,0.345c-3.209-0.075-5.899-1.187-8.07-3.335c-2.25-2.246-3.374-4.996-3.374-8.247
	c0-3.25,1.125-5.989,3.374-8.214C6.832,1.541,9.639,0.417,13.002,0.417z"/>
<path fill="#F2613C" d="M23.375,16.842c0.188,0.079,0.264,0.292,0.171,0.475c-0.536,1.057-1.26,2.032-2.163,2.936
	c-0.917,0.907-1.94,1.631-3.042,2.168c-0.181,0.088-0.392,0.013-0.471-0.172l-2.664-6.241c-0.049-0.115-0.018-0.285,0.071-0.375
	l1.371-1.394c0.09-0.092,0.26-0.126,0.378-0.076L23.375,16.842z"/>
</svg>
