<?xml version="1.0" encoding="UTF-8"?>
<svg width="106px" height="24px" viewBox="0 0 106 24" version="1.1" xmlns="http://www.w3.org/2000/svg" xmlns:xlink="http://www.w3.org/1999/xlink">
    <!-- Generator: sketchtool 55.2 (78181) - https://sketchapp.com -->
    <title>8FBE0142-21EA-4F70-ADC5-52EDFEBD584A</title>
    <desc>Created with sketchtool.</desc>
    <g id="training" stroke="none" stroke-width="1" fill="none" fill-rule="evenodd">
        <g id="32-1-training-program-mobile" transform="translate(-25.000000, -18.000000)" fill="#ffffff">
            <g id="Header/header-mobile">
                <path d="M60.1477736,32.6804912 L66.1211959,32.6804912 L63.1342162,25.0182968 L60.1477736,32.6804912 Z M66.00875,18.5567828 L75.4832162,41.0364191 C75.5974527,41.3076731 75.4499122,41.5296278 75.1551892,41.5296278 L69.82475,41.5296278 C69.6915338,41.5296278 69.5425608,41.4282385 69.4938581,41.304346 L68.0213176,37.5628857 L58.2475088,37.5628857 L56.80795,41.3018416 C56.7597128,41.4271294 56.6103459,41.5296278 56.4760196,41.5296278 L51.1480514,41.5296278 C50.8530777,41.5296278 50.7056446,41.30753 50.8204541,41.0360255 L60.3275081,18.5563535 C60.3780014,18.4370046 60.5254345,18.3393359 60.6551412,18.3393359 L65.6810811,18.3393359 C65.8110743,18.3393359 65.9582568,18.4371834 66.00875,18.5567828 Z M90.0832838,29.6294373 C90.8413986,28.9512663 91.2206351,28.0476704 91.2206351,26.9172185 C91.2206351,25.8774947 90.8413986,25.0520694 90.0832838,24.4419803 C89.3251689,23.8318554 88.3127973,23.5267929 87.0458108,23.5267929 L83.5846959,23.5267929 L83.5846959,30.6464433 L87.0458108,30.6464433 C88.3127973,30.6464433 89.3251689,30.3076083 90.0832838,29.6294373 Z M94.2749392,20.7465281 C96.0393378,22.2612148 96.9217162,24.3179089 96.9217162,26.9172185 C96.9217162,29.6072561 96.0056757,31.7431584 94.1732365,33.3248895 C92.3404392,34.8844395 89.8512297,35.663964 86.7066824,35.663964 L83.5846959,35.663964 L83.5846959,41.1743 C83.5846959,41.3697446 83.4246216,41.5296278 83.2290946,41.5296278 L78.2048378,41.5296278 C78.0089527,41.5296278 77.8492365,41.3697446 77.8492365,41.1743 L77.8492365,18.8302908 C77.8492365,18.6348819 78.0089527,18.474963 78.2048378,18.474963 L87.1478716,18.474963 C90.1796149,18.474963 92.5549459,19.2323064 94.2749392,20.7465281 Z M105.023196,18.474963 C105.218723,18.474963 105.378797,18.6348819 105.378797,18.8302908 L105.378797,41.1743 C105.378797,41.3697446 105.218723,41.5296278 105.023196,41.5296278 L99.9989392,41.5296278 C99.8030541,41.5296278 99.6433378,41.3697446 99.6433378,41.1743 L99.6433378,18.8302908 C99.6433378,18.6348819 99.8030541,18.474963 99.9989392,18.474963 L105.023196,18.474963 Z M130.644399,18.474963 C130.839926,18.474963 131,18.6348819 131,18.8302908 L131,41.1743 C131,41.3697446 130.839926,41.5296278 130.644399,41.5296278 L126.749973,41.5296278 C126.660804,41.5296278 126.54048,41.4749262 126.482108,41.4081323 L115.525074,28.8831845 L115.525074,41.1743 C115.525074,41.3697446 115.365,41.5296278 115.169473,41.5296278 L110.144858,41.5296278 C109.949331,41.5296278 109.789257,41.3697446 109.789257,41.1743 L109.789257,18.8302908 C109.789257,18.6348819 109.949331,18.474963 110.144858,18.474963 L114.003473,18.474963 C114.093716,18.474963 114.215115,18.5308452 114.273845,18.5991774 L125.298561,31.4602413 L125.298561,18.8302908 C125.298561,18.6348819 125.458635,18.474963 125.65452,18.474963 L130.644399,18.474963 Z M37.2171088,18 C40.6784385,18 43.5744946,19.1647612 45.9047399,21.4922442 C48.1732115,23.7147603 49.3481642,26.4316658 49.4297823,29.6412076 C49.4346831,29.8394428 49.2718155,30.0020449 49.0733162,30.0020449 L43.9787986,30.0020449 C43.7939074,30.0020449 43.6317561,29.8510342 43.6242,29.6665013 C43.5543331,27.9586238 42.9458358,26.4993541 41.7983858,25.2895509 C40.5769865,23.9791096 39.049727,23.323084 37.2171088,23.323084 C35.3844905,23.323084 33.8572311,23.9791096 32.6358318,25.2895509 C31.4138953,26.5778468 30.8032135,28.149024 30.8032135,30.0020449 C30.8032135,31.8560677 31.4138953,33.4382996 32.6358318,34.7488125 C33.7821358,35.9579001 35.1978804,36.5998658 36.8825642,36.6742084 C37.0665959,36.6822938 37.2171088,36.8443236 37.2171088,37.0282841 L37.2171088,41.643825 C37.2171088,41.8419528 37.0543845,42.0045192 36.8561,42 C33.5312811,41.9226278 30.7444838,40.7713542 28.4951351,38.5461191 C26.1648899,36.2181352 25,33.3702536 25,30.0020449 C25,26.6348381 26.1648899,23.7975819 28.4951351,21.4922442 C30.8254162,19.1647612 33.7325736,18 37.2171088,18 Z M47.9629304,35.0156303 C48.1582784,35.0980941 48.2363101,35.3184031 48.1404804,35.5073722 C47.5850905,36.6023701 46.8356419,37.6135446 45.8997622,38.5484804 C44.9502385,39.4876735 43.8896297,40.2389349 42.7488764,40.7945013 C42.5615142,40.8857303 42.3433547,40.8075596 42.2616345,40.615943 L39.5021966,34.1514596 C39.4506291,34.0310374 39.4836108,33.8560925 39.5755014,33.7626812 L40.9961878,32.3183301 C41.0893676,32.2235593 41.2658074,32.1883557 41.3882804,32.2400521 L47.9629304,35.0156303 Z" id="Combined-Shape"></path>
            </g>
        </g>
    </g>
</svg>