<?xml version="1.0" encoding="UTF-8"?>
<svg width="20px" height="16px" viewBox="0 0 20 16" version="1.1" xmlns="http://www.w3.org/2000/svg" xmlns:xlink="http://www.w3.org/1999/xlink">
    <!-- Generator: sketchtool 55.2 (78181) - https://sketchapp.com -->
    <title>A5678D14-2579-43E6-B079-83CDBF60EF0A</title>
    <desc>Created with sketchtool.</desc>
    <g id="training" stroke="none" stroke-width="1" fill="none" fill-rule="evenodd">
        <g id="32-1-training-program-mobile" transform="translate(-281.000000, -22.000000)" fill="#ffffff" fill-rule="nonzero">
            <g id="Header/header-mobile">
                <g id="Icon/Dark-Gray/search" transform="translate(277.000000, 16.000000)">
                    <path d="M5,6 L23,6 C23.5522847,6 24,6.44771525 24,7 C24,7.55228475 23.5522847,8 23,8 L5,8 C4.44771525,8 4,7.55228475 4,7 C4,6.44771525 4.44771525,6 5,6 Z M5,20 L23,20 C23.5522847,20 24,20.4477153 24,21 C24,21.5522847 23.5522847,22 23,22 L5,22 C4.44771525,22 4,21.5522847 4,21 C4,20.4477153 4.44771525,20 5,20 Z M10,13 L23,13 C23.5522847,13 24,13.4477153 24,14 C24,14.5522847 23.5522847,15 23,15 L10,15 C9.44771525,15 9,14.5522847 9,14 C9,13.4477153 9.44771525,13 10,13 Z" id="nav"></path>
                </g>
            </g>
        </g>
    </g>
</svg>