<svg version="1.2" xmlns="http://www.w3.org/2000/svg" viewBox="0 0 126 34" width="126" height="34"><defs><clipPath clipPathUnits="userSpaceOnUse" id="cp1"><path d="m0.66 0h124.95v33.55h-124.95z"/></clipPath></defs><style>.a{fill:#020203}.b{fill:#8e744a}.c{fill:#fff}</style><g clip-path="url(#cp1)"><path fill-rule="evenodd" class="a" d="m3.1 23.9v6.8h-2.4v-17.8c1.8-0.1 2.9-0.1 3.3-0.1q7.8 0 7.8 5.2c0 4-2.3 6.1-6.8 6.1-0.4-0.1-1-0.1-1.9-0.2zm0-8.9v6.7c1 0.1 1.5 0.1 1.6 0.1 3 0 4.5-1.3 4.5-3.6 0-2.2-1.6-3.3-4.8-3.3-0.3 0-0.8 0.1-1.3 0.1z"/><path fill-rule="evenodd" class="a" d="m24.1 24.5h-9.4c0 1.5 0.4 2.7 1.2 3.5 0.8 0.8 1.7 1.1 2.9 1.1 1.3 0 2.4-0.4 3.4-1.2l0.9 1.7c-0.4 0.4-0.8 0.7-1.6 1-1 0.3-1.9 0.4-3.1 0.4-1.6 0-3.1-0.5-4.2-1.6-1.3-1.3-1.9-2.9-1.9-5 0-2.2 0.6-3.9 1.9-5.3 1.1-1.1 2.6-1.7 4.1-1.7 1.8 0 3.4 0.5 4.4 1.6 1.1 0.9 1.6 2.3 1.6 4 0 0.5-0.1 1-0.2 1.5zm-5.7-5.2c-1 0-1.9 0.3-2.6 1-0.6 0.7-1 1.5-1.1 2.4h7.3q0-1.4-0.9-2.3c-0.7-0.7-1.5-1.1-2.7-1.1z"/><path class="a" d="m27.4 19.5h-1.5v-1.8h1.5v-2.7l2.3-0.9v3.7h3.6v1.8h-3.6v6.5q0 1.6 0.6 2.3c0.4 0.5 1 0.7 1.8 0.7 0.6 0 1.3-0.2 1.9-0.5l0.3 2.1c-0.9 0.2-2 0.3-3.1 0.3q-1.6 0-2.6-1.1c-0.7-0.8-1.1-1.8-1.1-2.9v-7.5z"/><path class="a" d="m43.4 19.9c-0.5-0.4-1-0.6-1.6-0.6-0.8 0-1.5 0.4-2.1 1.2-0.6 0.8-0.9 1.6-0.9 2.7v7.5h-2.3v-13h2.3v2q1.3-2.3 3.7-2.3c0.4 0 1 0.1 1.8 0.2z"/><path fill-rule="evenodd" class="a" d="m45 24.2c0-2.1 0.6-3.7 1.6-5 1.1-1.2 2.5-1.8 4.4-1.8 1.8 0 3.3 0.6 4.3 1.8 1 1.2 1.5 2.9 1.5 5 0 2.1-0.6 3.7-1.6 5-1.1 1.3-2.5 1.8-4.3 1.8-1.9 0-3.3-0.5-4.4-1.8-0.9-1.3-1.5-2.9-1.5-5zm2.5 0q0 4.9 3.5 4.9c1 0 1.9-0.5 2.4-1.3 0.6-0.9 1-2.1 1-3.6 0-3.3-1.1-4.9-3.4-4.9-1.1 0-2 0.4-2.5 1.3-0.7 0.9-1 2.1-1 3.6z"/><path class="a" d="m66.2 14.4c-0.5-0.2-1-0.3-1.3-0.3-0.7 0-1.3 0.3-1.8 0.8-0.4 0.6-0.6 1.2-0.6 2 0 0.2 0 0.5 0.1 0.7h2.6v1.9h-2.6v11.2h-2.3v-11.1h-2v-1.9h2c0-1.6 0.3-3 1.2-4 0.9-0.9 1.9-1.4 3.3-1.4 0.6 0 1.4 0.1 2.2 0.4z"/><path fill-rule="evenodd" class="a" d="m75.6 29.3c-0.9 1.2-2.4 1.7-4.2 1.7-1.1 0-1.9-0.3-2.7-1-0.8-0.8-1.1-1.7-1.1-2.8 0-1.4 0.5-2.4 1.7-3.4 1.1-0.9 2.7-1.4 4.4-1.4 0.5 0 1.1 0.1 1.6 0.3q0-3.2-2.9-3.2c-1.4 0-2.5 0.4-3.3 1.2l-1-1.9c0.4-0.4 1.1-0.7 1.9-1 0.7-0.3 1.5-0.4 2.2-0.4 1.9 0 3.2 0.4 4.1 1.3 0.8 0.8 1.2 2.2 1.2 4.1v4.8c0 1.1 0.3 1.9 1.1 2.3v1.1c-1 0-1.6-0.1-2.1-0.3-0.3-0.3-0.7-0.8-0.9-1.4zm-0.2-4.9c-0.7-0.2-1.2-0.3-1.5-0.3q-1.7 0-2.9 0.8c-0.8 0.6-1.1 1.3-1.1 2.2 0 1.3 0.7 2 2.4 2 1.1 0 2.2-0.6 3.1-1.6z"/><path class="a" d="m91.2 18.8l-1.2 1.5c-0.3-0.2-0.7-0.5-1.2-0.7q-0.9-0.3-1.8-0.3c-1.2 0-2.3 0.5-2.9 1.4-0.8 0.9-1.2 2.1-1.2 3.7q0 2.3 1.2 3.4c0.7 0.8 1.8 1.3 3.1 1.3 1.1 0 2.1-0.4 3.2-1.3l0.9 2q-1.9 1.1-4.6 1.1c-1.9 0-3.3-0.5-4.5-1.8-1.1-1.2-1.7-2.8-1.7-4.8 0-2.2 0.6-3.8 1.8-5.1 1.3-1.2 2.9-1.9 5-1.9 0.7 0 1.5 0.1 2.2 0.4 0.7 0.5 1.3 0.7 1.7 1.1z"/><path class="b" d="m114 0.8c0 6.8 11.4 13 11.4 21.9 0 5.8-4.6 10.3-11.1 10.7 0 0-0.6 0-1.1 0-0.4 0-1 0-1 0-6.4-0.5-11.2-4.9-11.2-10.7 0-8.9 11.6-15.1 11.6-21.9 0.1-0.8 1.4-0.9 1.4 0z"/><path fill-rule="evenodd" class="a" d="m113.1 0c0.2 0 0.4 0.1 0.6 0.2q0.3 0.1 0.3 0.6c0 3.1 2.5 6.2 5.2 9.4 3.1 3.8 6.3 7.7 6.3 12.5 0 5.9-4.6 10.4-11.2 10.8l-1.1 0.1-1-0.1c-6.5-0.5-11.3-5.1-11.3-10.8 0-4.8 3.3-8.8 6.4-12.5 2.7-3.2 5.2-6.2 5.2-9.4 0-0.5 0.4-0.8 0.6-0.8zm1.2 33.3c6.4-0.3 10.9-4.7 10.9-10.5 0-4.7-3.1-8.6-6.2-12.4-2.7-3.1-5.2-6.2-5.2-9.5 0-0.2-0.1-0.3-0.2-0.4-0.1-0.1-0.3-0.1-0.4-0.1-0.3 0-0.5 0.1-0.5 0.5 0 3.2-2.5 6.3-5.2 9.5-3.1 3.8-6.3 7.7-6.3 12.4 0 5.6 4.7 10 11.1 10.5z"/><path class="c" d="m110.8 12.9c0.7 0 2.1 0 4.2 0 0.8 0 1.8 0 2.6 0.1 1.9 0.2 3.5 1.4 4.3 3.1 0.7 1.6 0.5 4.1-0.5 5.5-1.3 1.8-2.6 2.4-4.2 2.7-1.2 0.2-2.1 0.1-3.3 0.1-0.7 3.4-1.3 6.4-1.3 6.4h-5.1l3-13.4h4.7l-0.7 3.9c1.3 0 2.3-1.1 2.4-2.4 0-0.7 0-1.7-0.7-2.1-0.5-0.3-2.6-0.2-3.1-0.2h-2.3c-1.1 0-1.8-0.5-2.4-1.4-0.3-0.7-0.8-1.5-1-2.3 1 0.1 3 0 3.4 0z"/><path fill-rule="evenodd" class="a" d="m114.8 12.8c0.8 0 1.8 0 2.7 0.1 1.8 0.2 3.5 1.4 4.4 3.2 0.7 1.6 0.5 4.1-0.5 5.7-1.2 1.7-2.4 2.5-4.3 2.8-0.9 0.1-1.7 0.1-2.6 0.1h-0.6c-0.1 0.2-1.3 6.4-1.3 6.4h-5.4l3-13.7h5c0 0-0.6 3.5-0.6 3.8 1.1-0.1 1.9-1 2-2.3 0-0.2 0-0.3 0-0.4 0-0.8-0.2-1.4-0.6-1.6-0.3-0.2-2-0.2-2.7-0.2h-2.6c-1.2 0-1.9-0.6-2.5-1.4-0.3-0.6-0.8-1.5-1-2.3l-0.1-0.2zm-6.6 0.4h-0.7c0.2 0.8 0.6 1.5 1 2.1 0.5 0.8 1.1 1.3 2.3 1.3h2.6c1.2 0 2.4 0 2.8 0.2 0.5 0.4 0.8 1.1 0.7 2.2-0.1 1.6-1.1 2.7-2.5 2.7h-0.2c0 0 0.6-3.6 0.7-3.9-0.4 0-4.3 0-4.5 0 0 0.2-2.8 12.7-2.9 13 0.4 0 4.6 0 4.8 0 0.1-0.2 1.3-6.3 1.3-6.3v-0.1h0.9c1 0 1.7 0 2.6-0.1 1.8-0.3 3-1.1 4.1-2.7 1.1-1.5 1.3-3.9 0.5-5.5-0.8-1.6-2.4-2.8-4.1-2.9-0.9-0.1-1.8-0.1-2.7-0.1h-6.7z"/></g></svg>