<svg version="1.2" xmlns="http://www.w3.org/2000/svg" viewBox="0 0 146 34" width="146" height="34"><style>.a{fill:#512d6d}.b{fill:#cb2c30}.c{fill:#00a3e0}</style><path class="a" d="m47.5 0.9h-11.4l-0.1 2.1h4.9v12h1.8v-12h4.9z"/><path class="a" d="m65.5 12.4c-0.7 0.5-1.7 0.8-2.8 0.8q-3.6 0-3.6-3.8c0-2.5 1.1-3.7 3.6-3.7 1 0 1.9 0.2 2.7 0.7l0.3 0.2 0.2-2.1-0.2-0.1c-1-0.5-2.1-0.8-3.2-0.8-3.3 0-5.2 2.1-5.2 5.7 0 3.7 1.9 5.8 5.1 5.8 1.3 0 2.6-0.4 3.4-1.1l0.2-0.1-0.2-2z"/><path class="a" d="m73 3.6c-1.4 0-2.5 0.5-3.5 1.4v-0.7-4.2l-1.7 0.1v14.8h1.7v-7.8c0.6-0.8 1.7-1.5 3.1-1.5 2.1 0 3 1 3 3v6.3h1.7v-6.3c0.1-3.3-1.5-5.1-4.3-5.1z"/><path class="a" d="m84.4 3.6c-1.3 0-2.6 0.6-3.5 1.5l-0.2-1.3-1.4 0.2v11h1.7v-7.8c0.7-1 2.1-1.5 3.1-1.5 2.1 0 3 1 3 3v6.3h1.7v-6.3c0.1-3.3-1.5-5.1-4.4-5.1z"/><path class="a" d="m90.9 15h1.7v-0.6-10.6l-1.7 0.2z"/><path fill-rule="evenodd" class="a" d="m105.2 9.5c0 3.7-1.8 5.8-5.1 5.8-1.4 0-2.6-0.5-3.4-1.3v3.7h-1.8v-13.7l1.3-0.2 0.3 1.3c0.9-1 2.2-1.5 3.7-1.5 3.3 0 5 2.1 5 5.9zm-5.2-3.8c-1.5 0-2.6 0.5-3.3 1.5v4.6c0.4 0.6 1.3 1.5 3.1 1.5 2.4 0 3.6-1.2 3.6-3.8 0-2.5-1.1-3.8-3.4-3.8z"/><path class="a" d="m126.1 12.2l-5.5-11.3h-1.9v14.1h1.7v-10.3-0.2l5.1 10.5h1.3l5-10.4 0.1-0.1v10.5h1.7v-14.1h-1.9z"/><path class="a" d="m145.7 12.1l-0.3 0.1c-1.1 0.7-2.3 1-3.4 1-3.5 0-5-1.6-5-5.3 0-3.5 1.5-5.1 4.9-5.1 1.2 0 2.5 0.3 3.5 0.7l0.3 0.2 0.3-2.1-0.2-0.1c-0.9-0.4-2.4-0.9-3.9-0.9-5.6 0-6.8 4-6.8 7.3 0 4.8 2.3 7.4 6.8 7.4 1.5 0 3-0.6 3.9-1.1l0.2-0.2z"/><path class="a" d="m115.5 6.8h-6.7v-3.7h8v-2.2h-9.8v14.1h1.8v-6h6.7z"/><path fill-rule="evenodd" class="a" d="m56.4 9c0 0.2 0 0.5 0 0.7l-0.1 0.6h-8.1q0.4 3 3.9 3c1.2 0 2.3-0.3 3.4-0.9l0.3-0.3 0.3 1.9-0.2 0.1c-1.2 0.7-2.4 1.1-3.9 1.1-4.6 0-5.6-3.3-5.6-6.1 0-3.3 2-5.5 5.1-5.5 2.9 0 4.9 2.2 4.9 5.4zm-1.7-0.8c-0.2-1.6-1.4-2.6-3.2-2.6-1.9 0-3.1 1-3.3 2.6z"/><path class="a" d="m91.8 2.5c-0.6 0-1-0.6-1-1.3 0-0.6 0.4-1.2 1-1.2 0.5 0 1 0.6 1 1.2 0 0.7-0.5 1.3-1 1.3z"/><path class="b" d="m15.3 21.5v11.7c0 0.7 0.7 1.1 1.1 0.6l11.7-14.9c0.4-0.5 0.4-1.3 0-1.8l-4.7-6z"/><path class="c" d="m30 0.9h-14.7l8.2 10.3 6.9-8.9c0.5-0.5 0.2-1.4-0.4-1.4z"/><path class="c" d="m15.3 21.5v-20.6h-14.7c-0.6 0-0.8 0.8-0.4 1.4z"/><path class="a" d="m23.4 11.2l-8.1-10.3v20.6z"/></svg>